<svg class="svg-illustration svg-illustration--optimized-cloud-general" id="illustration-cloud-general" data-animation="" data-animation-options="type: optimizedCloudGeneral;" width="512" height="433" viewBox="0 0 512 433" fill="none" xmlns="http://www.w3.org/2000/svg">
  <g>
    <g>
      <path data-animation-path="" class="animation-element" d="M432.5 343.96V430.96L372 394.96" stroke="#007BFC" stroke-dasharray="157.400634765625" style="stroke-dashoffset: 0px; opacity: 1;"></path>
      <path data-animation-path="" class="animation-element" d="M257 229.06C257 234.86 257 301.16 257 313.56C257 327.56 262.3 331.86 272.5 337.76C283.4 344.06 357.7 385.66 381.5 399.06" stroke="#007BFC" stroke-dasharray="240.27565002441406" style="stroke-dashoffset: 0px; opacity: 1;"></path>
    </g>
    <g data-animation-shadow="" class="animation-element" style="transform: translateY(0px); opacity: 1;">
      <path opacity="0.08" d="M171.718 200.598C174.075 200.598 176.432 201.07 178.475 202.17C180.204 203.113 339.242 294.418 340.971 295.361C342.542 295.99 343.642 297.561 343.799 299.29C343.642 301.018 342.542 302.433 340.971 303.219C339.242 304.162 180.204 395.467 178.475 396.41C174.232 398.61 169.203 398.61 164.96 396.41C163.231 395.467 4.1933 304.162 2.4646 303.219C0.893097 302.59 -0.20697 301.018 -0.364136 299.29C-0.20697 297.561 0.893097 296.147 2.4646 295.361C4.1933 294.418 163.231 203.113 164.96 202.17C167.003 201.227 169.36 200.598 171.718 200.598Z" fill="url(#paint0_linear_3492_46109)"></path>
    </g>
    <g data-animation-box-bottom="" class="animation-element" style="transform: translateY(0px); opacity: 1;">
      <path d="M0.0940552 182.601C0.0940552 182.682 0.0940552 182.763 0.0940552 182.925C0.0940552 183.087 0.0940552 183.087 0.0940552 183.249V235.754C0.0940552 237.292 1.14667 238.669 2.92801 239.641C4.70935 240.612 163.653 331.622 165.353 332.594C169.644 334.699 174.665 334.699 178.875 332.594C180.656 331.622 339.681 240.45 341.381 239.479C343.081 238.507 344.215 237.131 344.215 235.592V182.925V182.844V182.763V182.035H344.134C343.729 180.658 342.757 179.525 341.462 178.877C339.681 177.905 180.656 85.3569 178.956 84.3043C174.665 82.1181 169.644 82.1181 165.434 84.3043C163.734 85.3569 4.70935 177.905 2.92801 178.877C1.63251 179.525 0.660858 180.658 0.256012 182.035H0.175049V182.601H0.0940552Z" fill="url(#paint1_linear_3492_46109)"></path>
      <path d="M0.0940552 182.601C0.0940552 182.682 0.0940552 182.763 0.0940552 182.925C0.0940552 183.087 0.0940552 183.087 0.0940552 183.249V235.754C0.0940552 237.292 1.14667 238.669 2.92801 239.641C4.70935 240.612 163.653 331.622 165.353 332.594C169.644 334.699 174.665 334.699 178.875 332.594C180.656 331.622 339.681 240.45 341.381 239.479C343.081 238.507 344.215 237.131 344.215 235.592V182.925V182.844V182.763V182.035H344.134C343.729 180.658 342.757 179.525 341.462 178.877C339.681 177.905 180.656 85.3569 178.956 84.3043C174.665 82.1181 169.644 82.1181 165.434 84.3043C163.734 85.3569 4.70935 177.905 2.92801 178.877C1.63251 179.525 0.660858 180.658 0.256012 182.035H0.175049V182.601H0.0940552Z" fill="url(#paint2_linear_3492_46109)"></path>
      <path opacity="0.32" d="M253.709 264.408L192.939 299.249" stroke="#142149" stroke-width="4" stroke-linecap="round" stroke-linejoin="round"></path>
      <path opacity="0.32" d="M323.392 219.033L315.289 223.895" stroke="#142149" stroke-width="4" stroke-linecap="round" stroke-linejoin="round"></path>
      <path opacity="0.48" d="M323.392 227.136L315.289 231.997" stroke="#142149" stroke-width="4" stroke-linecap="round" stroke-linejoin="round"></path>
      <path opacity="0.48" d="M308.808 227.136L300.705 231.997" stroke="#142149" stroke-width="4" stroke-linecap="round" stroke-linejoin="round"></path>
      <path opacity="0.32" d="M308.808 235.238L300.705 240.1" stroke="#142149" stroke-width="4" stroke-linecap="round" stroke-linejoin="round"></path>
      <path opacity="0.32" d="M32.9116 225.92V237.264" stroke="#142149" stroke-width="4" stroke-linecap="round" stroke-linejoin="round"></path>
      <path opacity="0.32" d="M26.4292 221.869V233.213" stroke="#142149" stroke-width="4" stroke-linecap="round" stroke-linejoin="round"></path>
      <path opacity="0.32" d="M19.9482 217.818V229.972" stroke="#142149" stroke-width="4" stroke-linecap="round" stroke-linejoin="round"></path>
      <path opacity="0.32" d="M13.4658 214.576V225.92" stroke="#142149" stroke-width="4" stroke-linecap="round" stroke-linejoin="round"></path>
      <path fill-rule="evenodd" clip-rule="evenodd" d="M0.281653 183.897C0.775388 185.087 1.73447 186.117 2.85033 186.755C3.70112 187.241 43.9316 210.658 84.1617 234.075C124.391 257.491 164.62 280.908 165.471 281.394C169.684 283.582 174.789 283.582 179.002 281.394C180.785 280.34 339.921 187.727 341.623 186.755C342.838 186.106 343.811 185.053 344.297 183.838H344.149C344.225 183.525 344.296 183.149 344.296 182.844C344.296 181.306 343.244 179.929 341.463 178.877C340.862 178.522 322.375 167.769 298.071 153.632C250.311 125.851 180.083 85.0019 178.957 84.3043C174.665 82.1181 169.645 82.1181 165.435 84.3043C163.734 85.3569 4.71 177.905 2.92866 178.877C1.14735 179.848 0.0947266 181.306 0.0947266 182.844C0.0947266 183.168 0.175704 183.573 0.256682 183.897H0.281653Z" fill="url(#paint3_linear_3492_46109)"></path>
    </g>
    <g data-animation-upper-box="" class="animation-element" style="transform: translateY(0px); opacity: 1;">
      <path d="M0.0945435 105.997C0.0945435 106.078 0.0945435 106.159 0.0945435 106.321C0.0945435 106.483 0.0945435 106.483 0.0945435 106.644V152.149C0.0945435 153.688 1.14716 155.064 2.9285 156.036C4.70981 157.008 163.653 248.017 165.354 248.989C169.645 251.094 174.665 251.094 178.875 248.989C180.657 248.017 339.681 156.846 341.381 155.874C343.082 154.902 344.215 153.526 344.215 151.987V106.321V106.24V106.159V105.43H344.134C343.73 104.053 342.758 102.92 341.462 102.272C339.681 101.3 180.657 8.75224 178.956 7.69963C174.665 5.51345 169.645 5.51345 165.434 7.69963C163.734 8.75224 4.70981 101.3 2.9285 102.272C1.63297 102.92 0.661346 104.053 0.2565 105.43H0.175537V105.997H0.0945435Z" fill="url(#paint4_linear_3492_46109)"></path>
      <path d="M0.0945435 105.997C0.0945435 106.078 0.0945435 106.159 0.0945435 106.321C0.0945435 106.483 0.0945435 106.483 0.0945435 106.644V152.149C0.0945435 153.688 1.14716 155.064 2.9285 156.036C4.70981 157.008 163.653 248.017 165.354 248.989C169.645 251.094 174.665 251.094 178.875 248.989C180.657 248.017 339.681 156.846 341.381 155.874C343.082 154.902 344.215 153.526 344.215 151.987V106.321V106.24V106.159V105.43H344.134C343.73 104.053 342.758 102.92 341.462 102.272C339.681 101.3 180.657 8.75224 178.956 7.69963C174.665 5.51345 169.645 5.51345 165.434 7.69963C163.734 8.75224 4.70981 101.3 2.9285 102.272C1.63297 102.92 0.661346 104.053 0.2565 105.43H0.175537V105.997H0.0945435Z" fill="url(#paint5_linear_3492_46109)"></path>
      <path d="M172.155 53.0426C174.503 52.9616 176.77 53.5284 178.876 54.662C180.576 55.6336 338.143 146.563 339.843 147.534C341.544 148.506 342.596 149.882 342.596 151.421C342.596 152.959 341.544 154.336 339.843 155.307C338.143 156.279 180.576 247.208 178.876 248.179C174.665 250.285 169.645 250.285 165.435 248.179C163.734 247.208 6.16748 156.279 4.46713 155.307C2.76675 154.336 1.71417 152.959 1.71417 151.421C1.71417 149.882 2.76675 148.506 4.46713 147.534C6.16748 146.563 163.734 55.6336 165.435 54.662C167.54 53.5284 169.807 53.0426 172.155 53.0426Z" fill="url(#paint6_linear_3492_46109)"></path>
      <path d="M10.7017 107.292C10.6207 107.049 10.6207 106.725 10.6207 106.483C10.6207 105.025 11.5923 103.73 13.2117 102.758C14.8311 101.786 164.139 15.0679 165.758 14.0962C169.726 12.072 174.503 12.072 178.471 14.0962C180.09 15.0679 329.398 101.867 331.017 102.758C332.637 103.649 333.689 105.025 333.689 106.483C333.689 106.725 333.608 107.049 333.608 107.292H344.134C344.215 106.968 344.296 106.564 344.296 106.24C344.296 104.701 343.244 103.325 341.462 102.272C339.681 101.22 180.657 8.75224 178.956 7.69963C174.665 5.51345 169.645 5.51345 165.435 7.69963C163.734 8.75224 4.7099 101.3 2.92856 102.272C1.14725 103.244 0.094635 104.701 0.094635 106.24C0.094635 106.564 0.175598 106.968 0.256592 107.292H10.7017Z" fill="url(#paint7_linear_3492_46109)"></path>
      <path d="M173.859 33.6254C171.709 33.6254 169.559 34.086 167.563 35.1608C166.028 36.0821 16.9345 122.068 15.2455 122.989C13.7101 123.91 12.6353 125.139 12.6353 126.674C12.6353 128.056 13.5565 129.438 15.2455 130.359C16.781 131.281 165.874 217.267 167.563 218.188C171.555 220.184 176.315 220.184 180.308 218.188C181.843 217.267 330.936 131.281 332.625 130.359C334.161 129.438 335.236 128.21 335.236 126.674C335.236 125.292 334.314 123.91 332.625 122.989C331.09 122.068 181.997 36.0821 180.308 35.1608C178.158 34.086 176.008 33.6254 173.859 33.6254Z" fill="url(#paint8_linear_3492_46109)"></path>
      <g opacity="0.32">
        <path opacity="0.32" d="M218.534 72.9649C220.491 71.9013 221.558 70.4833 221.558 68.888C221.558 67.47 220.669 65.8747 218.534 64.8112L199.501 53.8214L180.289 43.009C175.842 40.7047 170.506 40.7047 165.881 43.009L146.669 53.8214L127.458 64.6339C125.501 65.6975 124.434 67.1155 124.434 68.7108C124.434 70.1288 125.323 71.5468 127.458 72.7876L165.703 94.5898C170.15 96.8941 175.486 96.8941 180.111 94.5898L199.323 83.7774L218.534 72.9649Z" fill="#161A2E"></path>
        <path opacity="0.32" d="M204.292 172.721C206.329 171.542 207.348 170.028 207.348 168.513C207.348 166.998 206.329 165.483 204.292 164.305L184.259 152.692L86.6185 97.0061C81.865 94.6498 76.2627 94.6498 71.5092 97.0061L51.4766 108.451L31.444 119.896C29.4068 121.074 28.3882 122.588 28.3882 124.103C28.3882 125.618 29.4068 127.133 31.444 128.311L149.287 195.273C154.041 197.63 159.643 197.63 164.396 195.273L184.429 183.829L204.292 172.721Z" fill="#161A2E"></path>
        <path opacity="0.32" d="M257.316 83.1422L174.948 130.324L169.758 127.313L252.126 80.1306L257.316 83.1422ZM266.189 88.3289L183.821 135.511L178.296 132.332L260.665 85.15L266.189 88.3289ZM275.062 93.3483L192.694 140.53L187.504 137.519L269.872 90.3367L275.062 93.3483ZM284.103 98.7023L201.735 145.884L196.545 142.873L278.913 95.6906L284.103 98.7023ZM292.976 103.722L210.608 151.071L205.418 148.059L287.786 100.877L292.976 103.722ZM302.183 109.076L219.815 156.258L214.625 153.246L296.994 106.064L302.183 109.076ZM310.889 114.095L228.521 161.277L223.331 158.265L305.699 111.083L310.889 114.095ZM319.762 119.282L237.394 166.464L232.204 163.452L314.572 116.27L319.762 119.282Z" fill="#161A2E" stroke="#161A2E" stroke-width="0.9976" stroke-linecap="round" stroke-linejoin="round"></path>
        <path opacity="0.32" d="M110.424 80.7424C111.96 79.9747 113.802 79.9747 115.338 80.7424C116.72 81.5102 116.72 82.7385 115.338 83.5062C113.802 84.274 111.96 84.274 110.424 83.5062C109.042 82.7385 109.042 81.5102 110.424 80.7424Z" fill="#161A2E" stroke="#161A2E" stroke-width="2.9929"></path>
        <path opacity="0.32" d="M126.547 89.1875C128.082 88.4197 129.925 88.4197 131.46 89.1875C132.842 89.9552 132.842 91.1836 131.46 91.9513C129.925 92.719 128.082 92.719 126.547 91.9513C125.165 91.1836 125.165 89.9552 126.547 89.1875Z" fill="#161A2E" stroke="#161A2E" stroke-width="2.9929"></path>
        <g opacity="0.72">
          <g opacity="0.72">
            <path d="M146.655 80.0568L132.068 89.2696L146.655 80.0568Z" fill="#161A2E"></path>
            <path d="M146.655 80.0568L132.068 89.2696" stroke="#161A2E" stroke-width="0.4988"></path>
          </g>
          <g opacity="0.72">
            <path d="M180.281 61.7849L236.172 94.0295L180.281 61.7849Z" fill="#161A2E"></path>
            <path d="M132.068 93.1083L180.076 120.805M180.281 61.7849L236.172 94.0295" stroke="#161A2E" stroke-width="0.4988"></path>
          </g>
          <path opacity="0.72" d="M176.443 83.1277L188.727 90.0373V103.089L204.849 113.069" stroke="#161A2E" stroke-width="0.4988"></path>
          <path opacity="0.72" d="M156.636 106.927V117.676L142.817 126.121" stroke="#161A2E" stroke-width="0.4988"></path>
          <path opacity="0.72" d="M142.816 99.2501L128.229 100.018L113.643 109.231" stroke="#161A2E" stroke-width="0.4988"></path>
          <path opacity="0.72" d="M116.713 83.8955L124.391 88.5019L116.713 83.8955Z" fill="#161A2E" stroke="#161A2E" stroke-width="0.4988"></path>
          <g opacity="0.72">
            <path d="M128.997 70.8441L115.946 79.2891L128.997 70.8441Z" fill="#161A2E"></path>
            <path d="M128.997 70.8441L115.946 79.2891" stroke="#161A2E" stroke-width="0.4988"></path>
          </g>
        </g>
      </g>
      <path d="M81.4122 92.5048C81.4122 92.5048 83.7851 91.1358 84.3327 90.8164C84.8804 90.4969 82.7356 89.7668 81.2296 90.6795C79.0848 91.9116 82.553 93.8738 84.6522 92.6417C86.7514 91.4096 85.8843 91.9116 85.8843 91.9116" stroke="#1B4ECF" stroke-linecap="round" stroke-linejoin="round"></path>
      <path d="M341.217 109.178C339.516 110.15 180.379 202.601 178.597 203.655C174.302 205.842 169.279 205.842 165.065 203.655C163.364 202.601 4.2272 110.15 2.44461 109.178C1.63434 108.691 0.905121 108.043 0.337921 107.233H-0.310303V158.96C-0.310303 160.499 0.743042 161.877 2.52563 162.849C4.30823 163.821 163.364 255.057 165.065 256.03C169.36 258.136 174.383 258.136 178.597 256.03C180.379 255.057 339.516 163.821 341.217 162.849C342.919 161.877 344.053 160.499 344.053 158.96V107.233H343.405C342.838 108.043 342.109 108.691 341.217 109.178Z" fill="url(#paint29_linear_3492_46109)"></path>
      <path d="M341.217 110.178C339.516 111.15 180.379 203.601 178.597 204.655C174.302 206.842 169.279 206.842 165.065 204.655C163.364 203.601 4.2272 111.15 2.44461 110.178C1.63434 109.691 0.905121 109.043 0.337921 108.233H-0.310303V158.96C-0.310303 160.499 0.743042 161.877 2.52563 162.849C4.30823 163.821 163.364 255.057 165.065 256.03C169.36 258.136 174.383 258.136 178.597 256.03C180.379 255.057 339.516 163.821 341.217 162.849C342.919 161.877 344.053 160.499 344.053 158.96V108.233H343.405C342.838 109.043 342.109 109.691 341.217 110.178Z" fill="url(#paint30_linear_3492_46109)"></path>
      <path opacity="0.32" d="M253.709 187.803L192.939 222.645" stroke="#142149" stroke-width="4" stroke-linecap="round" stroke-linejoin="round"></path>
      <path opacity="0.32" d="M323.392 142.428L315.289 147.29" stroke="#142149" stroke-width="4" stroke-linecap="round" stroke-linejoin="round"></path>
      <path opacity="0.48" d="M323.392 150.531L315.289 155.393" stroke="#142149" stroke-width="4" stroke-linecap="round" stroke-linejoin="round"></path>
      <path opacity="0.48" d="M308.807 150.531L300.704 155.393" stroke="#142149" stroke-width="4" stroke-linecap="round" stroke-linejoin="round"></path>
      <path opacity="0.32" d="M308.807 158.634L300.704 163.495" stroke="#142149" stroke-width="4" stroke-linecap="round" stroke-linejoin="round"></path>
      <path opacity="0.32" d="M32.9111 149.316V160.659" stroke="#142149" stroke-width="4" stroke-linecap="round" stroke-linejoin="round"></path>
      <path opacity="0.32" d="M26.4287 145.264V156.608" stroke="#142149" stroke-width="4" stroke-linecap="round" stroke-linejoin="round"></path>
      <path opacity="0.32" d="M19.9478 141.213V153.367" stroke="#142149" stroke-width="4" stroke-linecap="round" stroke-linejoin="round"></path>
      <path opacity="0.32" d="M13.4653 137.972V149.316" stroke="#142149" stroke-width="4" stroke-linecap="round" stroke-linejoin="round"></path>
      <path d="M333.763 107.233C333.358 108.448 332.466 109.502 331.251 110.15C329.631 111.122 180.217 197.983 178.597 198.955C174.626 200.981 169.846 200.981 165.876 198.955C164.255 197.983 14.8418 111.122 13.2213 110.15C12.0059 109.583 11.1146 108.529 10.7094 107.233H0.256989C0.743164 108.448 1.71545 109.502 2.84982 110.15C4.55136 111.122 163.769 203.817 165.47 204.789C169.684 206.977 174.788 206.977 179.002 204.789C180.784 203.736 339.921 111.122 341.623 110.15C342.838 109.502 343.81 108.448 344.296 107.233H333.763Z" fill="url(#paint31_linear_3492_46109)"></path>
    </g>
    <g data-animation-components="" class="animation-element" style="transform: translateY(0px); opacity: 1;">
      <path d="M115.337 83.2985C113.802 84.0662 111.959 84.0662 110.424 83.2985C109.81 83.1449 109.502 82.5307 109.502 81.9166V74.3928H116.412V81.9166C116.258 82.5307 115.798 83.1449 115.337 83.2985Z" fill="#356BF2"></path>
      <path d="M110.424 73.0109C111.959 72.2431 113.802 72.2431 115.337 73.0109C116.719 73.7786 116.719 75.0069 115.337 75.9282C113.802 76.696 111.959 76.696 110.424 75.9282C109.042 75.1605 109.042 73.7786 110.424 73.0109Z" fill="#00B7FE"></path>
      <path d="M131.305 87.7435C129.77 88.5112 127.927 88.5112 126.392 87.7435C125.778 87.5899 125.471 86.9757 125.471 86.3616V78.8378H132.38V86.3616C132.227 86.9757 131.92 87.5899 131.305 87.7435Z" fill="#356BF2"></path>
      <path d="M126.545 77.4559C128.081 76.6881 129.923 76.6881 131.459 77.4559C132.841 78.2236 132.841 79.452 131.459 80.3732C129.923 81.141 128.081 81.141 126.545 80.3732C125.163 79.6055 125.163 78.2236 126.545 77.4559Z" fill="#00B7FE"></path>
      <path d="M212.67 131.399C211.169 130.565 211.002 130.398 210.001 129.897C209.167 129.397 209 128.729 209 128.396V98.0312C209.167 96.0291 210.335 94.3607 212.003 93.3597L285.579 50.8159C287.247 49.9817 288.081 49.648 289.75 50.8159L291.752 52.3175L212.67 131.399Z" fill="url(#paint9_linear_3492_46109)"></path>
      <path d="M290.918 86.6862L253.88 108.041V104.371C253.88 103.537 253.213 103.203 252.379 103.704C251.878 104.037 251.378 104.538 251.378 105.372V109.543L213.839 131.232C213.005 131.733 212.337 131.399 212.337 130.731V100.367C212.504 98.5317 213.672 96.6965 215.34 95.6954L289.584 52.818C291.252 51.9838 292.587 52.4843 292.587 53.9859V84.3504C292.42 85.3515 291.752 86.1857 290.918 86.6862Z" fill="url(#paint10_linear_3492_46109)"></path>
      <path opacity="0.4" d="M290.918 86.6861L253.88 108.041V104.371C253.88 103.537 253.213 103.203 252.379 103.704C251.878 104.037 251.378 104.538 251.378 105.372V109.543L213.839 131.232C213.005 131.732 212.337 131.399 212.337 130.731V125.059L292.42 78.6779V84.3504C292.42 85.3514 291.752 86.1856 290.918 86.6861Z" fill="#162F7E"></path>
      <path opacity="0.4" d="M281.741 78.3442V63.1619L288.415 59.3246V74.3401L281.741 78.3442ZM270.897 84.5172V69.3349L277.57 65.4976V80.5131L270.897 84.5172ZM260.219 90.6902V75.6748L266.893 71.8375V86.8529L260.219 90.6902ZM239.531 102.703V87.6871L246.205 83.8499V98.8653L239.531 102.703ZM228.853 108.876V93.8602L235.527 90.0229V105.038L228.853 108.876ZM218.176 115.049V100.033L224.849 96.1959V111.211L218.176 115.049Z" stroke="#162F7E" stroke-width="1.9802" stroke-miterlimit="10" stroke-linecap="round" stroke-linejoin="round"></path>
      <path d="M247.373 83.3494C247.206 83.1826 246.872 83.1826 246.538 83.3494L239.865 87.1867C239.698 87.3535 239.531 87.6872 239.531 87.854V103.704C239.531 104.037 239.698 104.204 239.865 104.371C240.032 104.371 240.032 104.371 240.199 104.371C240.365 104.371 240.365 104.371 240.532 104.371L247.206 100.534C247.373 100.367 247.539 100.2 247.539 99.8664V84.0168C247.873 83.8499 247.706 83.5162 247.373 83.3494Z" fill="#009DFF"></path>
      <path d="M236.695 89.5224C236.529 89.3556 236.195 89.3556 235.861 89.5224L229.188 93.3597C229.021 93.5265 228.854 93.6934 228.854 94.027V109.877C228.854 110.21 229.021 110.377 229.188 110.544C229.355 110.544 229.355 110.544 229.521 110.544C229.688 110.544 229.688 110.544 229.855 110.544L236.529 106.707C236.695 106.54 236.862 106.373 236.862 106.039V90.1897C237.029 90.0229 236.862 89.6892 236.695 89.5224Z" fill="#009DFF"></path>
      <path d="M226.018 95.6954C225.851 95.5286 225.517 95.5286 225.183 95.6954L218.51 99.5327C218.343 99.6996 218.176 100.033 218.176 100.2V116.05C218.176 116.383 218.343 116.55 218.51 116.717C218.677 116.717 218.677 116.717 218.844 116.717C219.01 116.717 219.01 116.717 219.177 116.717L225.851 112.88C226.018 112.713 226.184 112.546 226.184 112.212V96.5296C226.351 96.196 226.185 95.8623 226.018 95.6954Z" fill="#009DFF"></path>
      <path d="M268.061 71.5039C267.894 71.337 267.561 71.337 267.227 71.5039L260.553 75.3412C260.387 75.508 260.22 75.6748 260.22 76.0085V91.8582C260.22 92.1918 260.387 92.3587 260.553 92.5255C260.72 92.5255 260.72 92.5255 260.887 92.5255C261.054 92.5255 261.054 92.5255 261.221 92.5255L267.894 88.6882C268.061 88.5214 268.228 88.3546 268.228 88.0209V72.1712C268.562 71.8376 268.395 71.6707 268.061 71.5039Z" fill="#009DFF"></path>
      <path d="M289.583 59.1578C289.416 58.991 289.083 58.991 288.749 59.1578L282.075 62.9951C281.909 63.162 281.742 63.3288 281.742 63.6625V79.5121C281.742 79.8458 281.909 80.0126 282.075 80.1795C282.242 80.1795 282.242 80.1795 282.409 80.1795C282.576 80.1795 282.576 80.1795 282.743 80.1795L289.416 76.3422C289.583 76.1754 289.75 76.0085 289.75 75.6748V59.8252C289.917 59.4915 289.75 59.3247 289.583 59.1578Z" fill="#009DFF"></path>
      <path d="M278.738 65.3309C278.572 65.164 278.238 65.164 277.904 65.3309L271.231 69.1682C271.064 69.335 270.897 69.5018 270.897 69.8355V85.6851C270.897 86.0188 271.064 86.1857 271.231 86.3525C271.397 86.3525 271.398 86.3525 271.564 86.3525C271.731 86.3525 271.731 86.3525 271.898 86.3525L278.572 82.5152C278.738 82.3484 278.905 82.1815 278.905 81.8479V65.9982C279.239 65.6645 279.072 65.4977 278.738 65.3309Z" fill="#009DFF"></path>
      <path d="M221.41 151.484C219.908 150.65 219.741 150.483 218.74 149.982C217.906 149.482 217.739 148.815 217.739 148.481V118.116C217.906 116.114 219.074 114.446 220.742 113.445L294.318 71.2347C295.986 70.4005 296.821 70.0669 298.489 71.2347L300.491 72.7363L221.41 151.484Z" fill="url(#paint11_linear_3492_46109)"></path>
      <path d="M299.658 106.771L262.619 128.127V124.456C262.619 123.622 261.952 123.288 261.118 123.789C260.617 124.123 260.117 124.623 260.117 125.457V129.628L222.578 151.317C221.744 151.818 221.077 151.484 221.077 150.817V120.452C221.243 118.617 222.411 116.782 224.08 115.781L298.323 72.9031C299.991 72.0689 301.326 72.5695 301.326 74.071V104.436C301.159 105.437 300.492 106.271 299.658 106.771Z" fill="url(#paint12_linear_3492_46109)"></path>
      <path opacity="0.4" d="M299.658 106.771L262.619 128.127V124.456C262.619 123.622 261.952 123.288 261.118 123.789C260.617 124.122 260.117 124.623 260.117 125.457V129.628L222.578 151.317C221.744 151.818 221.077 151.484 221.077 150.817V145.144L301.159 98.7631V104.436C301.159 105.437 300.492 106.271 299.658 106.771Z" fill="#162F7E"></path>
      <path opacity="0.4" d="M290.481 98.4294V83.2471L297.154 79.4098V94.4253L290.481 98.4294ZM279.636 104.602V89.4201L286.31 85.5828V100.598L279.636 104.602ZM268.959 110.775V95.76L275.632 91.9227V106.938L268.959 110.775ZM248.271 122.788V107.772L254.944 103.935V118.95L248.271 122.788ZM237.593 128.961V113.945L244.267 110.108V125.124L237.593 128.961ZM226.749 135.134V120.118L233.422 116.281V131.297L226.749 135.134Z" stroke="#162F7E" stroke-width="1.9802" stroke-miterlimit="10" stroke-linecap="round" stroke-linejoin="round"></path>
      <path d="M256.112 103.435C255.945 103.268 255.611 103.268 255.278 103.435L248.604 107.272C248.437 107.439 248.271 107.772 248.271 107.939V123.789C248.271 124.123 248.437 124.289 248.604 124.456C248.771 124.456 248.771 124.456 248.938 124.456C249.105 124.456 249.105 124.456 249.272 124.456L255.945 120.619C256.112 120.452 256.279 120.285 256.279 119.952V104.102C256.612 103.935 256.446 103.601 256.112 103.435Z" fill="#009DFF"></path>
      <path d="M245.435 109.774C245.268 109.608 244.934 109.608 244.6 109.774L237.927 113.612C237.76 113.779 237.593 113.945 237.593 114.279V130.129C237.593 130.462 237.76 130.629 237.927 130.796C238.094 130.796 238.094 130.796 238.261 130.796C238.427 130.796 238.427 130.796 238.594 130.796L245.268 126.959C245.435 126.792 245.602 126.625 245.602 126.291V110.442C245.768 110.108 245.602 109.774 245.435 109.774Z" fill="#009DFF"></path>
      <path d="M234.59 115.947C234.423 115.781 234.089 115.781 233.756 115.947L227.082 119.785C226.915 119.952 226.749 120.285 226.749 120.452V136.302C226.749 136.635 226.915 136.802 227.082 136.969C227.249 136.969 227.249 136.969 227.416 136.969C227.583 136.969 227.583 136.969 227.75 136.969L234.423 133.132C234.59 132.965 234.757 132.798 234.757 132.464V116.615C235.09 116.448 234.924 116.114 234.59 115.947Z" fill="#009DFF"></path>
      <path d="M276.799 91.5891C276.633 91.4222 276.299 91.4222 275.965 91.5891L269.292 95.4263C269.125 95.5932 268.958 95.76 268.958 96.0937V111.943C268.958 112.277 269.125 112.444 269.292 112.611C269.459 112.611 269.459 112.611 269.625 112.611C269.792 112.611 269.792 112.611 269.959 112.611L276.633 108.773C276.799 108.607 276.966 108.44 276.966 108.106V92.2564C277.133 92.0896 276.966 91.7559 276.799 91.5891Z" fill="#009DFF"></path>
      <path d="M298.322 79.243C298.156 79.0762 297.822 79.0762 297.488 79.243L290.815 83.0803C290.648 83.2471 290.481 83.414 290.481 83.7476V99.5973C290.481 99.931 290.648 100.098 290.815 100.265C290.981 100.265 290.981 100.265 291.148 100.265C291.315 100.265 291.315 100.265 291.482 100.265L298.156 96.4274C298.322 96.2605 298.489 96.0937 298.489 95.76V79.7435C298.656 79.5767 298.489 79.4099 298.322 79.243Z" fill="#009DFF"></path>
      <path d="M287.478 85.416C287.311 85.2492 286.978 85.2492 286.644 85.416L279.97 89.2533C279.804 89.4201 279.637 89.587 279.637 89.9207V105.77C279.637 106.104 279.804 106.271 279.97 106.438C280.137 106.438 280.137 106.438 280.304 106.438C280.471 106.438 280.471 106.438 280.638 106.438L287.311 102.6C287.478 102.434 287.645 102.267 287.645 101.933V86.0834C287.979 85.7497 287.812 85.5829 287.478 85.416Z" fill="#009DFF"></path>
      <path d="M218.57 51.457L214.194 53.8947C214.087 53.7887 213.98 53.7887 213.874 53.6828C211.953 52.7289 209.711 52.7289 207.897 53.6828C207.363 54.0007 206.936 54.3187 206.616 54.8486C206.616 54.8486 206.616 56.1205 206.616 57.1804C206.616 57.4984 206.723 57.7103 206.936 57.9223L180.254 72.5488C175.771 74.7746 170.434 74.7746 165.845 72.5488L127.422 51.563C125.394 50.2911 124.434 48.8072 124.434 47.3234V43.4018H221.558V47.2174C221.558 48.8072 220.598 50.2911 218.57 51.457Z" fill="url(#paint13_linear_3492_46109)"></path>
      <path d="M218.57 46.4755L212.059 50.1851C210.352 49.6552 208.43 49.7612 206.723 50.5031C205.122 51.351 205.122 52.5169 206.509 53.3648L180.147 68.2033C175.664 70.4291 170.328 70.4291 165.738 68.2033L127.315 46.3695C125.394 45.3096 124.434 43.8258 124.434 42.3419C124.434 40.8581 125.394 39.3742 127.422 38.2083L154.425 22.9459C156.133 23.4758 157.947 23.3698 159.441 22.5219C160.722 21.674 161.042 20.5081 160.295 19.5542L165.738 16.4805C170.221 14.2547 175.557 14.2547 180.147 16.4805L218.57 38.3143C220.598 39.4802 221.558 40.964 221.558 42.4479C221.558 43.9317 220.598 45.3096 218.57 46.4755Z" fill="url(#paint14_linear_3492_46109)"></path>
      <path d="M142.578 39.1622H201.279V43.9317C201.173 44.9916 200.532 45.9455 199.465 46.3695L176.304 59.4061C173.529 60.784 170.328 60.784 167.553 59.4061L144.392 46.3695C143.431 45.9455 142.684 44.9916 142.578 43.9317V39.1622Z" fill="url(#paint15_linear_3492_46109)"></path>
      <path d="M199.465 41.7059C200.853 41.176 201.6 39.6921 201.066 38.3143C200.746 37.5724 200.212 36.9364 199.465 36.7244L187.832 30.0471L176.305 23.2638C173.53 21.8859 170.328 21.8859 167.553 23.2638L155.919 29.9411L144.286 36.6185C142.898 37.1484 142.151 38.6322 142.578 40.0101C142.898 40.752 143.432 41.388 144.286 41.7059L167.553 55.0606C170.328 56.4384 173.53 56.4384 176.305 55.0606L199.465 41.7059Z" fill="url(#paint16_linear_3492_46109)"></path>
      <path fill-rule="evenodd" clip-rule="evenodd" d="M206.45 149.274L174.688 167.619L171.768 165.93V169.353L171.357 169.353L171.494 169.444L162.185 174.829L155.877 171.225L153.195 172.775C152.465 173.095 151.598 173.095 150.913 172.684L32.2187 104.598C32.0362 104.507 31.8537 104.324 31.7168 104.142L31.6255 104.096V99.9432L35.7782 101.038L202.206 140.968C202.206 140.968 202.295 141.994 202.304 142.934L206.45 145.167V149.274ZM171.357 165.702H166.611L168.984 164.333L171.357 165.702Z" fill="url(#paint17_linear_3492_46109)"></path>
      <path fill-rule="evenodd" clip-rule="evenodd" d="M32.0349 99.6237L80.8178 71.4675C81.548 71.148 82.415 71.148 83.0995 71.5587L201.748 140.101C202.433 140.512 202.524 141.105 201.931 141.425L153.148 169.581C152.418 169.9 151.551 169.9 150.866 169.49L32.2174 100.947C31.5329 100.536 31.4873 99.9432 32.0349 99.6237Z" fill="url(#paint18_linear_3492_46109)"></path>
      <path fill-rule="evenodd" clip-rule="evenodd" d="M168.984 160.226L165.836 162.051L171.859 165.519L161.272 171.634L155.34 167.984L200.518 141.972L206.45 145.623L175.054 163.694L168.984 160.226Z" fill="url(#paint19_linear_3492_46109)"></path>
      <path fill-rule="evenodd" clip-rule="evenodd" d="M203.849 147.129L199.194 144.436L200.609 143.615L205.263 146.307L203.849 147.129ZM201.749 148.315L197.095 145.623L198.509 144.802L203.164 147.494L201.749 148.315ZM199.65 149.548L194.995 146.855L196.41 146.034L201.065 148.726L199.65 149.548ZM197.597 150.734L192.942 148.042L194.357 147.22L199.011 149.913L197.597 150.734ZM195.497 151.966L190.843 149.274L192.257 148.452L196.912 151.145L195.497 151.966ZM193.398 153.153L188.744 150.46L190.158 149.639L194.813 152.331L193.398 153.153ZM191.208 154.43L186.553 151.738L187.968 150.917L192.623 153.609L191.208 154.43ZM189.109 155.617L184.454 152.924L185.869 152.103L190.523 154.795L189.109 155.617ZM187.01 156.803L182.355 154.111L183.769 153.29L188.424 155.982L187.01 156.803ZM184.956 158.035L180.301 155.343L181.716 154.522L186.371 157.214L184.956 158.035ZM182.72 159.313L178.065 156.621L179.48 155.799L184.135 158.492L182.72 159.313ZM180.666 160.5L176.012 157.807L177.426 156.986L182.081 159.678L180.666 160.5ZM178.567 161.686L173.913 158.994L175.327 158.172L179.982 160.865L178.567 161.686ZM176.468 162.918L171.813 160.226L173.228 159.405L177.883 162.097L176.468 162.918ZM169.167 167.117L164.512 164.424L165.927 163.603L170.581 166.295L169.167 167.117ZM167.067 168.303L162.413 165.611L163.827 164.789L168.482 167.482L167.067 168.303ZM164.968 169.535L160.314 166.843L161.728 166.021L166.383 168.714L164.968 169.535ZM162.869 170.722L158.214 168.029L159.629 167.208L164.284 169.9L162.869 170.722Z" fill="url(#paint20_linear_3492_46109)"></path>
      <path fill-rule="evenodd" clip-rule="evenodd" d="M104.777 93.6457L70.2316 113.451C69.5471 113.77 68.7713 113.725 68.1324 113.36L47.232 101.449C46.8212 101.221 46.6387 100.856 46.7756 100.582H46.73V98.9393L102.449 91.1814L105.096 90.8164V92.8699H105.05C105.187 93.1894 105.096 93.5088 104.777 93.6457ZM132.614 109.435L98.0687 129.469C97.3842 129.788 96.6084 129.742 95.9695 129.377L75.0691 117.375C74.6584 117.147 74.4758 116.782 74.6127 116.508H74.5671V114.409L132.933 106.651V108.705H132.888C133.024 108.979 132.933 109.298 132.614 109.435ZM126.818 145.897L161.363 125.863C161.682 125.727 161.773 125.407 161.636 125.133H161.682V123.08L103.316 131.294V132.937H103.362C103.225 133.211 103.407 133.576 103.818 133.804L124.718 145.806C125.357 146.171 126.133 146.216 126.818 145.897Z" fill="url(#paint21_linear_3492_46109)"></path>
      <path fill-rule="evenodd" clip-rule="evenodd" d="M143.84 146.946L135.991 151.555C135.854 151.601 135.671 151.601 135.534 151.555L130.788 148.817C130.697 148.772 130.651 148.726 130.697 148.635V146.901L143.931 145.03V146.855C143.931 146.809 143.931 146.901 143.84 146.946Z" fill="url(#paint22_linear_3492_46109)"></path>
      <path fill-rule="evenodd" clip-rule="evenodd" d="M157.986 139.189L150.137 143.798C150 143.843 149.818 143.843 149.681 143.798L144.935 141.06C144.844 141.014 144.798 140.968 144.844 140.877V139.143L158.077 137.272V139.097C158.077 139.052 158.077 139.143 157.986 139.189Z" fill="url(#paint23_linear_3492_46109)"></path>
      <path fill-rule="evenodd" clip-rule="evenodd" d="M171.22 131.887L163.371 136.496C163.234 136.542 163.052 136.542 162.915 136.496L158.169 133.758C158.077 133.712 158.032 133.667 158.077 133.576V131.841L171.311 129.97V131.796C171.311 131.75 171.311 131.841 171.22 131.887Z" fill="url(#paint24_linear_3492_46109)"></path>
      <path fill-rule="evenodd" clip-rule="evenodd" d="M152.966 151.966L145.117 156.575C144.98 156.621 144.798 156.621 144.661 156.575L139.915 153.837C139.824 153.791 139.778 153.7 139.824 153.655V151.92L153.057 150.049V151.875C153.057 151.829 153.057 151.92 152.966 151.966Z" fill="url(#paint25_linear_3492_46109)"></path>
      <path fill-rule="evenodd" clip-rule="evenodd" d="M167.113 144.208L159.264 148.817C159.127 148.863 158.945 148.863 158.808 148.817L154.062 146.079C153.971 146.034 153.925 145.988 153.971 145.897V144.163L167.204 142.292V144.117C167.204 144.071 167.204 144.163 167.113 144.208Z" fill="url(#paint26_linear_3492_46109)"></path>
      <path fill-rule="evenodd" clip-rule="evenodd" d="M180.347 136.907L172.498 141.516C172.361 141.562 172.179 141.562 172.042 141.516L167.296 138.778C167.204 138.732 167.159 138.687 167.204 138.595V136.861L180.438 134.99V136.816C180.438 136.77 180.438 136.861 180.347 136.907Z" fill="url(#paint27_linear_3492_46109)"></path>
      <path fill-rule="evenodd" clip-rule="evenodd" d="M47.1413 98.4829L81.6408 78.4951C82.3253 78.1757 83.0554 78.2213 83.7399 78.5864L104.64 90.5882C105.234 90.9533 105.325 91.4552 104.777 91.7747L70.2778 111.762C69.5933 112.082 68.8632 112.036 68.1787 111.671L47.2782 99.6694C46.6393 99.3043 46.5937 98.7567 47.1413 98.4829ZM74.978 113.999L109.477 94.0108C110.162 93.6913 110.892 93.737 111.577 94.102L132.477 106.104C133.07 106.469 133.162 106.971 132.614 107.29L98.1145 127.278C97.43 127.598 96.6998 127.552 96.0153 127.187L75.1149 115.185C74.476 114.82 74.4304 114.272 74.978 113.999ZM138.227 110.439L103.727 130.427C103.18 130.701 103.225 131.248 103.864 131.613L124.765 143.615C125.449 143.98 126.179 144.026 126.864 143.706L161.363 123.719C161.911 123.399 161.82 122.897 161.226 122.532L140.326 110.53C139.641 110.165 138.911 110.12 138.227 110.439ZM144.935 138.869L152.784 134.26C152.921 134.169 153.103 134.214 153.24 134.26L157.986 136.998C158.123 137.089 158.123 137.181 158.032 137.272L150.183 141.881C150.046 141.972 149.863 141.927 149.726 141.881L144.98 139.143C144.798 139.052 144.798 138.96 144.935 138.869ZM166.018 126.959L158.169 131.568C158.032 131.659 158.032 131.75 158.215 131.841L162.961 134.58C163.098 134.625 163.28 134.671 163.417 134.58L171.266 129.97C171.358 129.879 171.358 129.788 171.221 129.697L166.475 126.959C166.338 126.913 166.155 126.867 166.018 126.959ZM130.789 146.627L138.638 142.018C138.774 141.927 138.957 141.972 139.094 142.018L143.84 144.756C143.977 144.847 143.977 144.938 143.886 145.03L136.036 149.639C135.9 149.73 135.717 149.684 135.58 149.639L130.834 146.901C130.652 146.809 130.652 146.718 130.789 146.627ZM161.911 139.28L154.062 143.889C153.925 143.98 153.925 144.071 154.107 144.208L158.853 146.946C158.99 146.992 159.173 147.038 159.309 146.946L167.159 142.337C167.25 142.246 167.25 142.155 167.113 142.064L162.367 139.325C162.23 139.234 162.048 139.234 161.911 139.28ZM167.296 136.587L175.145 131.978C175.282 131.933 175.465 131.933 175.602 132.024L180.347 134.762C180.484 134.853 180.484 134.945 180.393 135.036L172.544 139.645C172.407 139.736 172.225 139.691 172.088 139.645L167.342 136.907C167.159 136.77 167.159 136.679 167.296 136.587ZM147.765 147.038L139.916 151.647C139.779 151.738 139.779 151.829 139.961 151.921L144.707 154.659C144.844 154.704 145.027 154.75 145.164 154.659L153.013 150.05C153.104 149.958 153.104 149.867 152.967 149.776L148.221 147.038C148.084 146.992 147.902 146.946 147.765 147.038Z" fill="url(#paint28_linear_3492_46109)"></path>
      <path d="M68.909 101.403L63.0679 98.0265L71.9209 99.6694L66.0797 96.2924" stroke="#1B4ECF" stroke-linecap="round" stroke-linejoin="round"></path>
      <path d="M67.6313 95.6536L75.0697 98.1178L70.8257 93.8282" stroke="#1B4ECF" stroke-linecap="round" stroke-linejoin="round"></path>
      <path d="M78.1722 96.5662L72.3311 93.1893L77.2139 94.0107L75.7992 91.1814L81.6404 94.5583" stroke="#1B4ECF" stroke-linecap="round" stroke-linejoin="round"></path>
    </g>
    <g data-animation-box-right="" class="animation-element" style="transform: translateY(0px); opacity: 1;">
      <path d="M343.8 281.26L508.2 186.36C510.3 185.16 512 185.86 512 187.96V325.06C511.8 327.56 510.4 329.76 508.2 331.06L343.8 425.96C341.7 427.16 340 426.46 340 424.36V287.26C340.2 284.76 341.6 282.56 343.8 281.26Z" fill="url(#paint32_linear_3492_46109)"></path>
      <path d="M420 312.386L430.269 318.06L446 289.06" stroke="white" stroke-width="4" stroke-linecap="round"></path>
      <path fill-rule="evenodd" clip-rule="evenodd" d="M432 272.868C447.464 263.978 460 271.185 460 288.964C460 306.743 447.464 328.363 432 337.252C416.536 346.142 404 338.935 404 321.156C404 303.377 416.536 281.757 432 272.868Z" stroke="white" stroke-width="4"></path>
    </g>
  </g>
  <defs>
    <linearGradient id="paint0_linear_3492_46109" x1="171.718" y1="200.598" x2="171.718" y2="398.06" gradientUnits="userSpaceOnUse">
      <stop stop-color="#13151E" stop-opacity="0"></stop>
      <stop offset="1" stop-color="#131532"></stop>
    </linearGradient>
    <linearGradient id="paint1_linear_3492_46109" x1="344.215" y1="204.919" x2="0.0940552" y2="204.919" gradientUnits="userSpaceOnUse">
      <stop offset="0.48" stop-color="#D2D8E6"></stop>
      <stop offset="0.52" stop-color="#E0E4EF"></stop>
    </linearGradient>
    <linearGradient id="paint2_linear_3492_46109" x1="344.215" y1="204.919" x2="0.0940552" y2="204.919" gradientUnits="userSpaceOnUse">
      <stop stop-color="#BBC1D4" stop-opacity="0"></stop>
      <stop offset="0.35" stop-color="#BBC1D4" stop-opacity="0.7"></stop>
      <stop offset="1" stop-color="#BBC1D4" stop-opacity="0"></stop>
    </linearGradient>
    <linearGradient id="paint3_linear_3492_46109" x1="344.297" y1="233.436" x2="0.257342" y2="233.436" gradientUnits="userSpaceOnUse">
      <stop stop-color="#E0E4EF"></stop>
      <stop offset="1" stop-color="#EBEEF5"></stop>
    </linearGradient>
    <linearGradient id="paint4_linear_3492_46109" x1="344.215" y1="128.314" x2="0.0945435" y2="128.314" gradientUnits="userSpaceOnUse">
      <stop offset="0.48" stop-color="#D2D8E6"></stop>
      <stop offset="0.52" stop-color="#E0E4EF"></stop>
    </linearGradient>
    <linearGradient id="paint5_linear_3492_46109" x1="344.215" y1="128.314" x2="0.0945435" y2="128.314" gradientUnits="userSpaceOnUse">
      <stop stop-color="#BBC1D4" stop-opacity="0"></stop>
      <stop offset="0.35" stop-color="#BBC1D4" stop-opacity="0.7"></stop>
      <stop offset="1" stop-color="#BBC1D4" stop-opacity="0"></stop>
    </linearGradient>
    <linearGradient id="paint6_linear_3492_46109" x1="258.128" y1="237.394" x2="86.1819" y2="65.4474" gradientUnits="userSpaceOnUse">
      <stop offset="0.00763819" stop-color="#333C5E"></stop>
      <stop offset="1" stop-color="#3F4B75"></stop>
    </linearGradient>
    <linearGradient id="paint7_linear_3492_46109" x1="344.296" y1="56.6761" x2="0.094635" y2="56.6761" gradientUnits="userSpaceOnUse">
      <stop stop-color="#E0E4EF"></stop>
      <stop offset="1" stop-color="#EBEEF5"></stop>
    </linearGradient>
    <linearGradient id="paint8_linear_3492_46109" x1="12.6353" y1="126.663" x2="335.236" y2="126.663" gradientUnits="userSpaceOnUse">
      <stop offset="0.01" stop-color="#3F4B75"></stop>
      <stop offset="1" stop-color="#636F99"></stop>
    </linearGradient>
    <linearGradient id="paint9_linear_3492_46109" x1="202.368" y1="122.202" x2="281.924" y2="42.646" gradientUnits="userSpaceOnUse">
      <stop stop-color="#1B4ECF"></stop>
      <stop offset="1" stop-color="#3A6DEC"></stop>
    </linearGradient>
    <linearGradient id="paint10_linear_3492_46109" x1="212.711" y1="131.446" x2="291.774" y2="52.3827" gradientUnits="userSpaceOnUse">
      <stop stop-color="#2160FF"></stop>
      <stop offset="1" stop-color="#3294FC"></stop>
    </linearGradient>
    <linearGradient id="paint11_linear_3492_46109" x1="211.088" y1="142.309" x2="290.644" y2="62.7533" gradientUnits="userSpaceOnUse">
      <stop stop-color="#1B4ECF"></stop>
      <stop offset="1" stop-color="#3A6DEC"></stop>
    </linearGradient>
    <linearGradient id="paint12_linear_3492_46109" x1="221.431" y1="151.553" x2="300.494" y2="72.4899" gradientUnits="userSpaceOnUse">
      <stop stop-color="#2160FF"></stop>
      <stop offset="1" stop-color="#3294FC"></stop>
    </linearGradient>
    <linearGradient id="paint13_linear_3492_46109" x1="124.435" y1="58.7652" x2="221.55" y2="58.7652" gradientUnits="userSpaceOnUse">
      <stop stop-color="#1B4ECF"></stop>
      <stop offset="1" stop-color="#3A6DEC"></stop>
    </linearGradient>
    <linearGradient id="paint14_linear_3492_46109" x1="124.437" y1="42.3417" x2="221.552" y2="42.3417" gradientUnits="userSpaceOnUse">
      <stop stop-color="#2160FF"></stop>
      <stop offset="1" stop-color="#3294FC"></stop>
    </linearGradient>
    <linearGradient id="paint15_linear_3492_46109" x1="142.565" y1="49.7611" x2="201.279" y2="49.7611" gradientUnits="userSpaceOnUse">
      <stop stop-color="#1B4ECF"></stop>
      <stop offset="1" stop-color="#3A6DEC"></stop>
    </linearGradient>
    <linearGradient id="paint16_linear_3492_46109" x1="142.567" y1="39.1673" x2="201.283" y2="39.1673" gradientUnits="userSpaceOnUse">
      <stop stop-color="#0397F6"></stop>
      <stop offset="1" stop-color="#00BAFF"></stop>
    </linearGradient>
    <linearGradient id="paint17_linear_3492_46109" x1="14192.4" y1="-30608.2" x2="28893.4" y2="-30608.2" gradientUnits="userSpaceOnUse">
      <stop stop-color="#1D53DA"></stop>
      <stop offset="1" stop-color="#3F75FC"></stop>
    </linearGradient>
    <linearGradient id="paint18_linear_3492_46109" x1="28.2053" y1="100.797" x2="177.184" y2="174.415" gradientUnits="userSpaceOnUse">
      <stop stop-color="#2160FF"></stop>
      <stop offset="1" stop-color="#3294FC"></stop>
    </linearGradient>
    <linearGradient id="paint19_linear_3492_46109" x1="155.34" y1="156.794" x2="206.444" y2="156.794" gradientUnits="userSpaceOnUse">
      <stop stop-color="#1D53DA"></stop>
      <stop offset="1" stop-color="#3F75FC"></stop>
    </linearGradient>
    <linearGradient id="paint20_linear_3492_46109" x1="230.307" y1="137.872" x2="168.601" y2="157.193" gradientUnits="userSpaceOnUse">
      <stop stop-color="#00BAFF"></stop>
      <stop offset="1" stop-color="#0397F6"></stop>
    </linearGradient>
    <linearGradient id="paint21_linear_3492_46109" x1="9359.14" y1="-22583.5" x2="19026.8" y2="-22583.5" gradientUnits="userSpaceOnUse">
      <stop stop-color="#1D53DA"></stop>
      <stop offset="1" stop-color="#3F75FC"></stop>
    </linearGradient>
    <linearGradient id="paint22_linear_3492_46109" x1="1204.08" y1="-2544.97" x2="2318.42" y2="-2544.97" gradientUnits="userSpaceOnUse">
      <stop stop-color="#1D53DA"></stop>
      <stop offset="1" stop-color="#3F75FC"></stop>
    </linearGradient>
    <linearGradient id="paint23_linear_3492_46109" x1="1218.22" y1="-2552.73" x2="2332.57" y2="-2552.73" gradientUnits="userSpaceOnUse">
      <stop stop-color="#1D53DA"></stop>
      <stop offset="1" stop-color="#3F75FC"></stop>
    </linearGradient>
    <linearGradient id="paint24_linear_3492_46109" x1="1231.46" y1="-2560.03" x2="2345.8" y2="-2560.03" gradientUnits="userSpaceOnUse">
      <stop stop-color="#1D53DA"></stop>
      <stop offset="1" stop-color="#3F75FC"></stop>
    </linearGradient>
    <linearGradient id="paint25_linear_3492_46109" x1="1213.2" y1="-2539.95" x2="2327.55" y2="-2539.95" gradientUnits="userSpaceOnUse">
      <stop stop-color="#1D53DA"></stop>
      <stop offset="1" stop-color="#3F75FC"></stop>
    </linearGradient>
    <linearGradient id="paint26_linear_3492_46109" x1="1227.35" y1="-2547.71" x2="2341.69" y2="-2547.71" gradientUnits="userSpaceOnUse">
      <stop stop-color="#1D53DA"></stop>
      <stop offset="1" stop-color="#3F75FC"></stop>
    </linearGradient>
    <linearGradient id="paint27_linear_3492_46109" x1="1240.58" y1="-2555.01" x2="2354.93" y2="-2555.01" gradientUnits="userSpaceOnUse">
      <stop stop-color="#1D53DA"></stop>
      <stop offset="1" stop-color="#3F75FC"></stop>
    </linearGradient>
    <linearGradient id="paint28_linear_3492_46109" x1="48.0862" y1="101.902" x2="180.075" y2="135.589" gradientUnits="userSpaceOnUse">
      <stop stop-color="#0397F6"></stop>
      <stop offset="1" stop-color="#00BAFF"></stop>
    </linearGradient>
    <linearGradient id="paint29_linear_3492_46109" x1="344.053" y1="178.921" x2="-0.310303" y2="178.921" gradientUnits="userSpaceOnUse">
      <stop offset="0.48" stop-color="#D2D8E6"></stop>
      <stop offset="0.52" stop-color="#E0E4EF"></stop>
    </linearGradient>
    <linearGradient id="paint30_linear_3492_46109" x1="344.053" y1="185.921" x2="-0.310303" y2="185.921" gradientUnits="userSpaceOnUse">
      <stop stop-color="#BBC1D4" stop-opacity="0"></stop>
      <stop offset="0.35" stop-color="#BBC1D4" stop-opacity="0.7"></stop>
      <stop offset="1" stop-color="#BBC1D4" stop-opacity="0"></stop>
    </linearGradient>
    <linearGradient id="paint31_linear_3492_46109" x1="344.296" y1="156.831" x2="0.256989" y2="156.831" gradientUnits="userSpaceOnUse">
      <stop stop-color="#E0E4EF"></stop>
      <stop offset="1" stop-color="#EBEEF5"></stop>
    </linearGradient>
    <linearGradient id="paint32_linear_3492_46109" x1="340" y1="306.16" x2="512" y2="306.16" gradientUnits="userSpaceOnUse">
      <stop offset="0.01" stop-color="#3F4B75"></stop>
      <stop offset="1" stop-color="#636F99"></stop>
    </linearGradient>
    <clipPath id="clip0_3492_46109">
      <rect width="512" height="432" fill="white" transform="matrix(-1 0 0 1 512 0.0599976)"></rect>
    </clipPath>
  </defs>
</svg>
