<svg class="icon-sm" xmlns="http://www.w3.org/2000/svg" x="0px" y="0px" viewBox="0 0 48 48">
  <g>
    <g>
      <g>
        <path class="fill-gradient" style="    fill: #cadefe;    stroke: #b2b9ce;    stroke-width: 1;"
              d="M25.2,8.2v2.9c-2,1.3-3.9,2.8-5.7,4.4c-3.1,3.8-5.5,8-7.2,12.6c-1.8,4.5-1.8,8.1,0.3,12.1
					c-1.5,0.3-3.1,0-4.5-0.8c-2.7-1.6-3.6-4.9-3.6-8.9c0-4.7,1.2-9.4,3.6-13.5c2.2-3.2,4.6-6.2,7.4-8.9V2.8l4-2.3v5.2
					c0,0,5.7-1.3,8,0.1C27.7,6,28,6.2,28.2,6.4C27.3,7.1,26.2,7.7,25.2,8.2z"/>
        <path class="fill-primary stroke-primary" style="    stroke-width: 1;stroke: #007bfc;stroke-linecap: round;
    stroke-linejoin: round;    fill: #007bfc;"
              d="M32.7,10.3c0.5,0,1.1,0,1.6,0.1c-0.4-0.7-1-1.2-1.7-1.6C32.7,9.3,32.7,9.8,32.7,10.3z"/>
        <path class="fill-primary stroke-primary" style="    stroke-width: 1;    stroke: #007bfc;stroke-linecap: round;
    stroke-linejoin: round;    fill: #007bfc;"
              d="M25.1,12.8c0,1-1.2,1.8-2,2.5c-2.7,2.2-5.7,6.2-8.1,12.6c-3.6,9.6,0,14.5,0.3,15.1c-0.8-0.1-1.6-0.4-2.3-0.8
					c-2.7-1.6-3.6-4.9-3.6-8.9c0-4.7,1.3-9.3,3.6-13.4c2.1-3.7,7.4-8.9,7.4-8.9V5.6l4-2.3v5.3l0.2,0.1l0.6-0.2L25.1,12.8z"/>
        <path class="stroke-dark" style="stroke: #142149;stroke-linecap: round;
    stroke-linejoin: round;"
              d="M32.6,10.4c1.5-0.1,3,0.2,4.4,0.9c0.2,0.1,1.3,0.8,1.9,1.2"/>
        <path class="stroke-dark" style="    stroke: #142149;stroke-linecap: round;
    stroke-linejoin: round;"
              d="M25.5,13.4c-3.3,2.4-6,5.5-8,9.1c-2.6,4.6-4.1,9.5-4.1,13.5c0,3.4,1.1,6.3,3,8
					c1.1,0.8,2.3,1.6,3.5,2.2"/>
        <polyline class="stroke-dark"
                  points="25.5,13.2 25.5,8.3 29.3,5.9 32.5,7.7 			"/>
        <line class="stroke-dark" style="stroke: #142149;    stroke-linecap: round;
    stroke-linejoin: round;"
              x1="25.6" y1="8.4" x2="28.2" y2="10"/>
        <line class="stroke-dark" style="stroke: #142149;stroke-linecap: round;
    stroke-linejoin: round;"
              x1="25.5" y1="13.3" x2="28.2" y2="15"/>
        <line class="stroke-primary stroke-1-5" style="stroke-width: 1.5!important;    stroke: #007bfc; stroke-linecap: round;
    stroke-linejoin: round;"
              x1="30.5" y1="18.3" x2="30.5" y2="16"/>
        <line class="stroke-primary stroke-1-5" style="stroke-width: 1.5!important;    stroke: #007bfc; stroke-linecap: round;
    stroke-linejoin: round;"
              x1="20.7" y1="35.2" x2="18.8" y2="36.3"/>
        <line class="stroke-primary stroke-1-5" style="stroke-width: 1.5!important;    stroke: #007bfc; stroke-linecap: round;
    stroke-linejoin: round;"
              x1="30.4" y1="41" x2="30.4" y2="43.3"/>
        <line class="stroke-primary stroke-1-5" style="stroke-width: 1.5!important;    stroke: #007bfc; stroke-linecap: round;
    stroke-linejoin: round;"
              x1="40.1" y1="23.9" x2="42.1" y2="22.8"/>
        <path class="stroke-dark"  style="stroke: #142149;stroke-linecap: round;
    stroke-linejoin: round;"
              d="M43.5,21.8c0-4-0.9-7.4-3.6-8.9s-6.2-1-9.7,1c-4.1,2.6-7.4,6.1-9.7,10.3
					c-2.5,4.1-3.8,8.7-4,13.5c0,4.1,1.3,7.4,4,8.9s6.2,1,9.7-1c4.1-2.5,7.4-6,9.7-10.2C42.3,31.3,43.5,26.6,43.5,21.8z"/>
        <polyline class="stroke-dark" style="    stroke: #142149;    stroke-linecap: round;
    stroke-linejoin: round;"
                  points="28.5,15 28.5,10.1 32.5,7.7 32.5,12.7 			"/>
        <path class="fill-primary" style="fill: #007bfc;"
              d="M36.6,22.7l-4.9,9c-0.4,0.6-1.1,1.1-1.5,0.9l0,0c-0.1,0-0.1,0-0.2-0.1l0,0l-2.3-2
					c-0.4-0.3-0.3-1.1,0.1-1.7l0,0c0.5-0.6,1.1-0.9,1.5-0.6l1.7,1.4l4-7.5c0.3-0.7,1-1.1,1.4-0.9l0,0C36.9,21.3,36.9,22,36.6,22.7z"/>
      </g>
    </g>
  </g>
</svg>
