<svg version="1.1" class="icon-sm" xmlns="http://www.w3.org/2000/svg" xmlns:xlink="http://www.w3.org/1999/xlink" x="0px"
     y="0px" viewBox="0 0 48 48" style="enable-background:new 0 0 48 48;" xml:space="preserve">
    <linearGradient id="object-storage-nav-gradient-1" gradientUnits="userSpaceOnUse" x1="2.55" y1="489.03" x2="44.5"
                    y2="489.03" gradientTransform="matrix(1 0 0 1 -5.000000e-02 -449.73)">
        <stop offset="0" style="stop-color:#B2CFFD"/>
      <stop offset="1" style="stop-color:#D3E3FE"/>
    </linearGradient>
  <linearGradient id="object-storage-nav-gradient-2" gradientUnits="userSpaceOnUse" x1="2.05" y1="489.03" x2="45"
                  y2="489.03" gradientTransform="matrix(1 0 0 1 -5.000000e-02 -449.73)">
        <stop offset="0" style="stop-color:#B2CFFD"/>
    <stop offset="1" style="stop-color:#D3E3FE"/>
    </linearGradient>
  <path class="st0" style="fill: url(#object-storage-nav-gradient-1); stroke: url(#object-storage-nav-gradient-2);"
        d="M2.5,35.2l21,12.1l21-12.2l-6.6-3.8c0,0-10.1,5.9-14.4,8.4L9.4,31.9L2.5,35.2z"/>
  <path class="st1" style="fill: #007cfc; stroke: #007cfc;"
        d="M2.6,28.1l21.1,12.5l20.7-12.4l-6.1-3.5c0,0-12.5,7.7-14.5,8.9l-15.3-9L2.6,28.1z"/>
  <polygon class="st2" style="fill:none;stroke:#007CFC;"
           points="44.5,12.6 23.5,0.7 2.5,13.1 2.5,28.2 23.6,40.5 44.5,28.1 "/>
  <polyline style="stroke: #393d45; fill: none" points="40.5,16.3 40.5,22.8 23.5,33.2 5.5,22.8 5.5,16.3 "/>
  <polygon style="stroke: #393d45; fill: none" points="5.5,16.2 23.5,26.5 40.5,16.2 23.5,5.8 "/>
  <path style="fill: #007cfc" d="M19.3,20v-3.8l7.6,0.3l0.3-2.4l3.9,0.3l2.9,1.5l-10.7,6.2L19.3,20z"/>
  <ellipse style="fill: #007cfc" cx="21.9" cy="11.4" rx="1.5" ry="0.9"/>
</svg>
