<svg class="icon-sm" xmlns="http://www.w3.org/2000/svg" x="0px" y="0px" viewBox="0 0 48 48">

  <path class="stroke-primary stroke-1-5"
        style="stroke-width: 1.5!important; stroke: #007bfc;stroke-linecap: round; stroke-linejoin: round; fill: none;"
        d="M29.3,10l1.7,7.1l-8.8-0.3l1.1,4.7 M26.9,11.4l-0.2,0.2l2.2-2.1l3.7,1.2"/>

  <polygon class="fill-gradient" style="fill: #cadefe;stroke: #b2b9ce;stroke-width: 1;"
           points="0.5,33.7 24.5,47.1 47.3,33.8 39,28.8 24.5,36.8 10.1,28.7"/>

  <path class="fill-primary stroke-primary"
        style="stroke-width: 1; stroke: #007bfc;stroke-linecap: round;stroke-linejoin: round;fill: #007bfc;"
        d="M0.5,24.2l24,13.4l22.9-13.4c-0.1-0.1-6.9-4.2-7-4.2c0,0-11,6.1-15.8,8.9c0,0-16-9-16-9C8.5,19.9,0.6,24.1,0.5,24.2z"/>

  <polygon class="stroke-dark" style="stroke: #142149; stroke-linecap: round; stroke-linejoin: round; fill: none;"
           points="0.7,14.6 24.5,28.4 47.5,14.7 24.5,0.9 "/>

  <g>
    <path class="fill-primary" style="fill: #007bfc;"
          d="M12.2,13.8c0.6,0.3,0.5,0.9-0.2,1.3c-0.7,0.4-1.6,0.4-2.2,0.1c-0.6-0.3-0.5-0.9,0.2-1.3S11.6,13.4,12.2,13.8z"/>

    <path class="fill-primary" style="fill: #007bfc;"
          d="M15.5,11.8c0.6,0.3,0.5,0.9-0.2,1.3c-0.7,0.4-1.6,0.4-2.2,0.1s-0.5-0.9,0.2-1.3C14,11.5,15,11.5,15.5,11.8z"/>

    <path class="fill-primary" style="fill: #007bfc;"
          d="M18.9,9.8c0.6,0.3,0.5,0.9-0.2,1.3c-0.7,0.4-1.6,0.4-2.2,0.1c-0.6-0.3-0.5-0.9,0.2-1.3C17.4,9.6,18.4,9.5,18.9,9.8z"/>
  </g>
</svg>
