<svg class="icon-sm" xmlns="http://www.w3.org/2000/svg" x="0px" y="0px" viewBox="0 0 48 48">
  <path class="fill-gradient" style="    fill: #cadefe;
    stroke: #b2b9ce;
    stroke-width: 1;"
        d="M32.5,5.1V0.5L18.8,3.8L5.5,15.4v19.9c0,2.2,2.8,3.6,5.8,4.6c-0.1-2.9-0.1-20.8-0.1-20.8L23.8,7.7L32.5,5.1z"/>
  <path class="fill-primary stroke-primary stroke-1-5" style="stroke-width: 1.5!important; stroke: #007bfc;     stroke-linecap: round;
    stroke-linejoin: round; fill: #007bfc;"
        d="M37.4,7.5V3.6L24,6.9L10.5,18.5v19.9c0,2.1,2.6,3.5,5.5,4.5c-1.5-0.5-0.5-7.1-0.5-12.9v-8.7c0,0,12.5-10.6,13.5-11.7L37.4,7.5z"/>
  <path class="stroke-dark" style="    stroke: #142149;     stroke-linecap: round;
    stroke-linejoin: round;     fill: none;"
        d="M42.5,6.5L29.1,9.8L15.5,21.4v19.9c0,4.8,13.6,6.1,13.6,6.1s13.4-15.9,13.4-20.7V6.5z"/>
  <line class="stroke-primary stroke-1-5" style="stroke-width: 1.5!important; stroke: #007bfc; stroke-linecap: round; stroke-linejoin: round; fill: none;"
        x1="30" y1="21.5" x2="30" y2="18.8"/>
  <line class="stroke-primary stroke-1-5" style="stroke-width: 1.5!important; stroke: #007bfc; stroke-linecap: round; stroke-linejoin: round; fill: none;"
        x1="25.4" y1="29.3" x2="23.2" y2="30.6"/>
  <line class="stroke-primary stroke-1-5" style="stroke-width: 1.5!important; stroke: #007bfc; stroke-linecap: round; stroke-linejoin: round; fill: none;"
        x1="30" y1="32" x2="30" y2="34.7"/>
  <line class="stroke-primary stroke-1-5" style="stroke-width: 1.5!important; stroke: #007bfc; stroke-linecap: round; stroke-linejoin: round; fill: none;"
        x1="34.6" y1="24" x2="36.9" y2="22.7"/>
  <path class="stroke-primary stroke-1-5" style="stroke-width: 1.5!important; stroke: #007bfc; stroke-linecap: round; stroke-linejoin: round; fill: none;"
        d="M24.4,29c0.2-1.6,0.7-3.2,1.6-4.6c0.8-1.6,2-2.9,3.4-3.9"/>
  <path class="stroke-primary stroke-1-5" style="stroke-width: 1.5!important; stroke: #007bfc; stroke-linecap: round; stroke-linejoin: round; fill: none;"
        d="M35.7,22.5c-0.1-1.1-0.7-2.1-1.6-2.8c-1-0.7-2.3-0.7-3.4-0.1"/>
  <path class="stroke-primary stroke-1-5" style="stroke-width: 1.5!important; stroke: #007bfc; stroke-linecap: round; stroke-linejoin: round; fill: none;"
        d="M24.4,30.9C24.5,32,25,33,26,33.6c1,0.6,2.3,0.7,3.3,0.1"/>
  <path class="stroke-primary stroke-1-5" style="stroke-width: 1.5!important; stroke: #007bfc; stroke-linecap: round; stroke-linejoin: round; fill: none;"
        d="M35.7,24.4C35.4,26,34.9,27.6,34,29c-0.8,1.5-1.9,2.9-3.3,3.9"/>
</svg>
